<mxfile host="app.diagrams.net" modified="2022-07-02T15:21:05.760Z" agent="5.0 (X11; Linux x86_64) AppleWebKit/537.36 (KHTML, like Gecko) Chrome/102.0.0.0 Safari/537.36" etag="QkKitoN9Mn1IAaz1qw7T" version="20.0.4" type="github">
  <diagram id="UjBWyq6lN_wpWJ8CEsgR" name="Page-1">
    <mxGraphModel dx="1896" dy="1083" grid="1" gridSize="10" guides="1" tooltips="1" connect="1" arrows="1" fold="1" page="1" pageScale="1" pageWidth="850" pageHeight="1100" math="0" shadow="0">
      <root>
        <mxCell id="0" />
        <mxCell id="1" parent="0" />
        <mxCell id="-VWM9IZ5B38HK7dgKO4f-399" value="" style="rounded=0;whiteSpace=wrap;html=1;fontFamily=Courier New;fontSize=18;fontColor=#000000;fillColor=none;strokeWidth=2;" vertex="1" parent="1">
          <mxGeometry x="80" y="320" width="880" height="240" as="geometry" />
        </mxCell>
        <mxCell id="-VWM9IZ5B38HK7dgKO4f-377" value="&lt;font style=&quot;font-size: 59px;&quot;&gt;V&lt;/font&gt;" style="rounded=0;whiteSpace=wrap;html=1;glass=0;strokeColor=default;" vertex="1" parent="1">
          <mxGeometry x="760" y="480" width="40" height="40" as="geometry" />
        </mxCell>
        <mxCell id="-VWM9IZ5B38HK7dgKO4f-378" value="&lt;font style=&quot;font-size: 59px;&quot;&gt;X&lt;/font&gt;" style="rounded=0;whiteSpace=wrap;html=1;glass=0;strokeColor=default;" vertex="1" parent="1">
          <mxGeometry x="760" y="400" width="40" height="40" as="geometry" />
        </mxCell>
        <mxCell id="-VWM9IZ5B38HK7dgKO4f-379" value="" style="endArrow=none;html=1;rounded=0;" edge="1" parent="1">
          <mxGeometry width="50" height="50" relative="1" as="geometry">
            <mxPoint x="240" y="360" as="sourcePoint" />
            <mxPoint x="280" y="360" as="targetPoint" />
          </mxGeometry>
        </mxCell>
        <mxCell id="-VWM9IZ5B38HK7dgKO4f-380" value="" style="endArrow=none;html=1;rounded=0;" edge="1" parent="1">
          <mxGeometry width="50" height="50" relative="1" as="geometry">
            <mxPoint x="280" y="360" as="sourcePoint" />
            <mxPoint x="280" y="350" as="targetPoint" />
          </mxGeometry>
        </mxCell>
        <mxCell id="-VWM9IZ5B38HK7dgKO4f-381" value="" style="endArrow=none;html=1;rounded=0;" edge="1" parent="1">
          <mxGeometry width="50" height="50" relative="1" as="geometry">
            <mxPoint x="239" y="350" as="sourcePoint" />
            <mxPoint x="239" y="360" as="targetPoint" />
          </mxGeometry>
        </mxCell>
        <mxCell id="-VWM9IZ5B38HK7dgKO4f-382" value="Scale:" style="text;html=1;strokeColor=none;fillColor=none;align=right;verticalAlign=middle;whiteSpace=wrap;rounded=0;fontFamily=Courier New;fontSize=24;fontColor=#000000;opacity=60;" vertex="1" parent="1">
          <mxGeometry x="100" y="340" width="120" height="30" as="geometry" />
        </mxCell>
        <mxCell id="-VWM9IZ5B38HK7dgKO4f-383" value="Legends:" style="text;html=1;strokeColor=none;fillColor=none;align=right;verticalAlign=middle;whiteSpace=wrap;rounded=0;fontFamily=Courier New;fontSize=24;fontColor=#000000;opacity=60;" vertex="1" parent="1">
          <mxGeometry x="100" y="400" width="120" height="30" as="geometry" />
        </mxCell>
        <mxCell id="-VWM9IZ5B38HK7dgKO4f-384" value="&lt;font style=&quot;font-size: 18px;&quot;&gt;2&lt;span style=&quot;background-color: rgb(255, 255, 255); font-family: sans-serif; text-align: start;&quot;&gt;Î»&lt;/span&gt;&lt;/font&gt;" style="text;html=1;strokeColor=none;fillColor=none;align=center;verticalAlign=middle;whiteSpace=wrap;rounded=0;fontFamily=Courier New;fontSize=24;fontColor=#000000;opacity=60;" vertex="1" parent="1">
          <mxGeometry x="230" y="330" width="60" height="30" as="geometry" />
        </mxCell>
        <mxCell id="-VWM9IZ5B38HK7dgKO4f-385" value="" style="rounded=0;whiteSpace=wrap;html=1;fillColor=#E8AA7B;strokeColor=none;glass=0;opacity=50;" vertex="1" parent="1">
          <mxGeometry x="240" y="400" width="40" height="40" as="geometry" />
        </mxCell>
        <mxCell id="-VWM9IZ5B38HK7dgKO4f-386" value="p-well" style="text;html=1;strokeColor=none;fillColor=none;align=left;verticalAlign=middle;whiteSpace=wrap;rounded=0;fontFamily=Courier New;fontSize=18;fontColor=#000000;opacity=60;" vertex="1" parent="1">
          <mxGeometry x="280" y="410" width="80" height="30" as="geometry" />
        </mxCell>
        <mxCell id="-VWM9IZ5B38HK7dgKO4f-387" value="&lt;h1&gt;&lt;br&gt;&lt;/h1&gt;" style="rounded=0;whiteSpace=wrap;html=1;fillColor=#1ba1e2;strokeColor=none;glass=0;opacity=80;fontColor=#ffffff;" vertex="1" parent="1">
          <mxGeometry x="400" y="400" width="40" height="40" as="geometry" />
        </mxCell>
        <mxCell id="-VWM9IZ5B38HK7dgKO4f-388" value="poly-Si gate" style="text;html=1;strokeColor=none;fillColor=none;align=left;verticalAlign=middle;whiteSpace=wrap;rounded=0;fontFamily=Courier New;fontSize=18;fontColor=#000000;opacity=60;" vertex="1" parent="1">
          <mxGeometry x="440" y="410" width="160" height="30" as="geometry" />
        </mxCell>
        <mxCell id="-VWM9IZ5B38HK7dgKO4f-389" value="" style="rounded=0;whiteSpace=wrap;html=1;fillColor=#fa6800;strokeColor=none;glass=0;opacity=60;fontColor=#000000;" vertex="1" parent="1">
          <mxGeometry x="240" y="480" width="40" height="40" as="geometry" />
        </mxCell>
        <mxCell id="-VWM9IZ5B38HK7dgKO4f-390" value="p+ reigon" style="text;html=1;strokeColor=none;fillColor=none;align=left;verticalAlign=middle;whiteSpace=wrap;rounded=0;fontFamily=Courier New;fontSize=18;fontColor=#000000;opacity=60;" vertex="1" parent="1">
          <mxGeometry x="280" y="490" width="100" height="30" as="geometry" />
        </mxCell>
        <mxCell id="-VWM9IZ5B38HK7dgKO4f-391" value="" style="rounded=0;whiteSpace=wrap;html=1;fillColor=#0050ef;strokeColor=none;glass=0;opacity=50;fontColor=#ffffff;" vertex="1" parent="1">
          <mxGeometry x="400" y="480" width="40" height="40" as="geometry" />
        </mxCell>
        <mxCell id="-VWM9IZ5B38HK7dgKO4f-392" value="n+ reigon" style="text;html=1;strokeColor=none;fillColor=none;align=left;verticalAlign=middle;whiteSpace=wrap;rounded=0;fontFamily=Courier New;fontSize=18;fontColor=#000000;opacity=60;" vertex="1" parent="1">
          <mxGeometry x="440" y="490" width="100" height="30" as="geometry" />
        </mxCell>
        <mxCell id="-VWM9IZ5B38HK7dgKO4f-393" value="" style="rounded=0;whiteSpace=wrap;html=1;fillColor=#ffff88;strokeColor=none;glass=0;textOpacity=80;opacity=80;" vertex="1" parent="1">
          <mxGeometry x="600" y="400" width="40" height="40" as="geometry" />
        </mxCell>
        <mxCell id="-VWM9IZ5B38HK7dgKO4f-394" value="metal 1" style="text;html=1;strokeColor=none;fillColor=none;align=left;verticalAlign=middle;whiteSpace=wrap;rounded=0;fontFamily=Courier New;fontSize=18;fontColor=#000000;opacity=60;" vertex="1" parent="1">
          <mxGeometry x="640" y="410" width="100" height="30" as="geometry" />
        </mxCell>
        <mxCell id="-VWM9IZ5B38HK7dgKO4f-395" value="" style="rounded=0;whiteSpace=wrap;html=1;fillColor=#6EC21A;strokeColor=none;glass=0;textOpacity=80;opacity=50;fontColor=#ffffff;" vertex="1" parent="1">
          <mxGeometry x="600" y="480" width="40" height="40" as="geometry" />
        </mxCell>
        <mxCell id="-VWM9IZ5B38HK7dgKO4f-396" value="metal 2" style="text;html=1;strokeColor=none;fillColor=none;align=left;verticalAlign=middle;whiteSpace=wrap;rounded=0;fontFamily=Courier New;fontSize=18;fontColor=#000000;opacity=60;" vertex="1" parent="1">
          <mxGeometry x="640" y="490" width="100" height="30" as="geometry" />
        </mxCell>
        <mxCell id="-VWM9IZ5B38HK7dgKO4f-397" value="contact hole" style="text;html=1;strokeColor=none;fillColor=none;align=left;verticalAlign=middle;whiteSpace=wrap;rounded=0;fontFamily=Courier New;fontSize=18;fontColor=#000000;opacity=60;" vertex="1" parent="1">
          <mxGeometry x="800" y="410" width="140" height="30" as="geometry" />
        </mxCell>
        <mxCell id="-VWM9IZ5B38HK7dgKO4f-398" value="via12" style="text;html=1;strokeColor=none;fillColor=none;align=left;verticalAlign=middle;whiteSpace=wrap;rounded=0;fontFamily=Courier New;fontSize=18;fontColor=#000000;opacity=60;" vertex="1" parent="1">
          <mxGeometry x="800" y="490" width="140" height="30" as="geometry" />
        </mxCell>
        <mxCell id="-VWM9IZ5B38HK7dgKO4f-400" value="" style="rounded=0;whiteSpace=wrap;html=1;fillColor=#E8AA7B;strokeColor=none;glass=0;opacity=50;" vertex="1" parent="1">
          <mxGeometry x="120" y="960" width="800" height="480" as="geometry" />
        </mxCell>
        <mxCell id="-VWM9IZ5B38HK7dgKO4f-401" value="" style="rounded=0;whiteSpace=wrap;html=1;fillColor=#0050ef;strokeColor=none;glass=0;opacity=50;fontColor=#ffffff;" vertex="1" parent="1">
          <mxGeometry x="240" y="1080" width="560" height="80" as="geometry" />
        </mxCell>
        <mxCell id="-VWM9IZ5B38HK7dgKO4f-402" value="&lt;font style=&quot;font-size: 59px;&quot;&gt;X&lt;/font&gt;" style="rounded=0;whiteSpace=wrap;html=1;glass=0;strokeColor=default;" vertex="1" parent="1">
          <mxGeometry x="260" y="1100" width="40" height="40" as="geometry" />
        </mxCell>
        <mxCell id="-VWM9IZ5B38HK7dgKO4f-403" value="" style="rounded=0;whiteSpace=wrap;html=1;fillColor=#ffff88;strokeColor=none;glass=0;textOpacity=80;opacity=80;" vertex="1" parent="1">
          <mxGeometry x="240" y="1080" width="80" height="80" as="geometry" />
        </mxCell>
        <mxCell id="-VWM9IZ5B38HK7dgKO4f-404" value="&lt;h1&gt;B&lt;/h1&gt;" style="rounded=0;whiteSpace=wrap;html=1;fillColor=#1ba1e2;strokeColor=none;glass=0;opacity=80;fontColor=#ffffff;" vertex="1" parent="1">
          <mxGeometry x="500" y="720" width="40" height="480" as="geometry" />
        </mxCell>
        <mxCell id="-VWM9IZ5B38HK7dgKO4f-405" value="&lt;font style=&quot;font-size: 59px;&quot;&gt;X&lt;/font&gt;" style="rounded=0;whiteSpace=wrap;html=1;glass=0;strokeColor=default;" vertex="1" parent="1">
          <mxGeometry x="580" y="1100" width="40" height="40" as="geometry" />
        </mxCell>
        <mxCell id="-VWM9IZ5B38HK7dgKO4f-406" value="&lt;font style=&quot;font-size: 59px;&quot;&gt;X&lt;/font&gt;" style="rounded=0;whiteSpace=wrap;html=1;glass=0;strokeColor=default;" vertex="1" parent="1">
          <mxGeometry x="740" y="1100" width="40" height="40" as="geometry" />
        </mxCell>
        <mxCell id="-VWM9IZ5B38HK7dgKO4f-407" value="" style="rounded=0;whiteSpace=wrap;html=1;fillColor=#ffff88;strokeColor=none;glass=0;textOpacity=80;opacity=80;" vertex="1" parent="1">
          <mxGeometry x="560" y="1080" width="80" height="80" as="geometry" />
        </mxCell>
        <mxCell id="-VWM9IZ5B38HK7dgKO4f-408" value="" style="rounded=0;whiteSpace=wrap;html=1;fillColor=#ffff88;strokeColor=none;glass=0;textOpacity=80;opacity=80;" vertex="1" parent="1">
          <mxGeometry x="720" y="1080" width="80" height="80" as="geometry" />
        </mxCell>
        <mxCell id="-VWM9IZ5B38HK7dgKO4f-409" value="&lt;h1&gt;&lt;font face=&quot;Courier New&quot; style=&quot;font-size: 24px;&quot;&gt;C&lt;/font&gt;&lt;/h1&gt;" style="rounded=0;whiteSpace=wrap;html=1;fillColor=#1ba1e2;strokeColor=none;glass=0;opacity=80;fontColor=#ffffff;" vertex="1" parent="1">
          <mxGeometry x="660" y="720" width="40" height="480" as="geometry" />
        </mxCell>
        <mxCell id="-VWM9IZ5B38HK7dgKO4f-410" value="&lt;h1&gt;&lt;font face=&quot;Courier New&quot; style=&quot;font-size: 24px;&quot;&gt;A&lt;/font&gt;&lt;/h1&gt;" style="rounded=0;whiteSpace=wrap;html=1;fillColor=#1ba1e2;strokeColor=none;glass=0;opacity=80;fontColor=#ffffff;" vertex="1" parent="1">
          <mxGeometry x="340" y="720" width="40" height="480" as="geometry" />
        </mxCell>
        <mxCell id="-VWM9IZ5B38HK7dgKO4f-411" value="" style="rounded=0;whiteSpace=wrap;html=1;fillColor=#fa6800;strokeColor=none;glass=0;opacity=50;fontColor=#000000;" vertex="1" parent="1">
          <mxGeometry x="240" y="1240" width="560" height="80" as="geometry" />
        </mxCell>
        <mxCell id="-VWM9IZ5B38HK7dgKO4f-412" value="" style="rounded=0;whiteSpace=wrap;html=1;fillColor=#ffff88;strokeColor=none;glass=0;textOpacity=80;opacity=80;" vertex="1" parent="1">
          <mxGeometry x="240" y="1160" width="80" height="80" as="geometry" />
        </mxCell>
        <mxCell id="-VWM9IZ5B38HK7dgKO4f-413" value="&lt;font style=&quot;font-size: 59px;&quot;&gt;X&lt;/font&gt;" style="rounded=0;whiteSpace=wrap;html=1;glass=0;strokeColor=default;" vertex="1" parent="1">
          <mxGeometry x="260" y="1260" width="40" height="40" as="geometry" />
        </mxCell>
        <mxCell id="-VWM9IZ5B38HK7dgKO4f-414" value="&lt;font style=&quot;font-size: 59px;&quot;&gt;X&lt;/font&gt;" style="rounded=0;whiteSpace=wrap;html=1;glass=0;strokeColor=default;" vertex="1" parent="1">
          <mxGeometry x="340" y="1260" width="40" height="40" as="geometry" />
        </mxCell>
        <mxCell id="-VWM9IZ5B38HK7dgKO4f-415" value="&lt;font style=&quot;font-size: 59px;&quot;&gt;X&lt;/font&gt;" style="rounded=0;whiteSpace=wrap;html=1;glass=0;strokeColor=default;" vertex="1" parent="1">
          <mxGeometry x="420" y="1260" width="40" height="40" as="geometry" />
        </mxCell>
        <mxCell id="-VWM9IZ5B38HK7dgKO4f-416" value="&lt;font style=&quot;font-size: 59px;&quot;&gt;X&lt;/font&gt;" style="rounded=0;whiteSpace=wrap;html=1;glass=0;strokeColor=default;" vertex="1" parent="1">
          <mxGeometry x="500" y="1260" width="40" height="40" as="geometry" />
        </mxCell>
        <mxCell id="-VWM9IZ5B38HK7dgKO4f-417" value="" style="rounded=0;whiteSpace=wrap;html=1;fillColor=#ffff88;strokeColor=none;glass=0;textOpacity=80;opacity=80;" vertex="1" parent="1">
          <mxGeometry x="240" y="1240" width="80" height="80" as="geometry" />
        </mxCell>
        <mxCell id="-VWM9IZ5B38HK7dgKO4f-418" value="" style="rounded=0;whiteSpace=wrap;html=1;fillColor=#ffff88;strokeColor=none;glass=0;textOpacity=80;opacity=80;" vertex="1" parent="1">
          <mxGeometry x="320" y="1240" width="80" height="80" as="geometry" />
        </mxCell>
        <mxCell id="-VWM9IZ5B38HK7dgKO4f-419" value="" style="rounded=0;whiteSpace=wrap;html=1;fillColor=#ffff88;strokeColor=none;glass=0;textOpacity=80;opacity=80;" vertex="1" parent="1">
          <mxGeometry x="400" y="1240" width="80" height="80" as="geometry" />
        </mxCell>
        <mxCell id="-VWM9IZ5B38HK7dgKO4f-420" value="" style="rounded=0;whiteSpace=wrap;html=1;fillColor=#ffff88;strokeColor=none;glass=0;textOpacity=80;opacity=80;" vertex="1" parent="1">
          <mxGeometry x="480" y="1240" width="80" height="80" as="geometry" />
        </mxCell>
        <mxCell id="-VWM9IZ5B38HK7dgKO4f-421" value="" style="rounded=0;whiteSpace=wrap;html=1;fillColor=#fa6800;strokeColor=none;glass=0;opacity=60;fontColor=#000000;" vertex="1" parent="1">
          <mxGeometry x="240" y="760" width="560" height="80" as="geometry" />
        </mxCell>
        <mxCell id="-VWM9IZ5B38HK7dgKO4f-422" value="&lt;font style=&quot;font-size: 59px;&quot;&gt;X&lt;/font&gt;" style="rounded=0;whiteSpace=wrap;html=1;glass=0;strokeColor=default;" vertex="1" parent="1">
          <mxGeometry x="420" y="780" width="40" height="40" as="geometry" />
        </mxCell>
        <mxCell id="-VWM9IZ5B38HK7dgKO4f-423" value="&lt;font style=&quot;font-size: 59px;&quot;&gt;X&lt;/font&gt;" style="rounded=0;whiteSpace=wrap;html=1;glass=0;strokeColor=default;" vertex="1" parent="1">
          <mxGeometry x="580" y="780" width="40" height="40" as="geometry" />
        </mxCell>
        <mxCell id="-VWM9IZ5B38HK7dgKO4f-424" value="&lt;font style=&quot;font-size: 59px;&quot;&gt;X&lt;/font&gt;" style="rounded=0;whiteSpace=wrap;html=1;glass=0;strokeColor=default;" vertex="1" parent="1">
          <mxGeometry x="740" y="780" width="40" height="40" as="geometry" />
        </mxCell>
        <mxCell id="-VWM9IZ5B38HK7dgKO4f-425" value="" style="rounded=0;whiteSpace=wrap;html=1;fillColor=#ffff88;strokeColor=none;glass=0;textOpacity=80;opacity=80;" vertex="1" parent="1">
          <mxGeometry x="720" y="760" width="80" height="80" as="geometry" />
        </mxCell>
        <mxCell id="-VWM9IZ5B38HK7dgKO4f-426" value="" style="rounded=0;whiteSpace=wrap;html=1;fillColor=#ffff88;strokeColor=none;glass=0;textOpacity=80;opacity=80;" vertex="1" parent="1">
          <mxGeometry x="560" y="760" width="80" height="80" as="geometry" />
        </mxCell>
        <mxCell id="-VWM9IZ5B38HK7dgKO4f-427" value="" style="rounded=0;whiteSpace=wrap;html=1;fillColor=#ffff88;strokeColor=none;glass=0;textOpacity=80;opacity=80;" vertex="1" parent="1">
          <mxGeometry x="400" y="760" width="80" height="80" as="geometry" />
        </mxCell>
        <mxCell id="-VWM9IZ5B38HK7dgKO4f-428" value="&lt;font style=&quot;font-size: 59px;&quot;&gt;X&lt;/font&gt;" style="rounded=0;whiteSpace=wrap;html=1;glass=0;strokeColor=default;" vertex="1" parent="1">
          <mxGeometry x="580" y="1260" width="40" height="40" as="geometry" />
        </mxCell>
        <mxCell id="-VWM9IZ5B38HK7dgKO4f-429" value="" style="rounded=0;whiteSpace=wrap;html=1;fillColor=#ffff88;strokeColor=none;glass=0;textOpacity=80;opacity=80;" vertex="1" parent="1">
          <mxGeometry x="560" y="1240" width="80" height="80" as="geometry" />
        </mxCell>
        <mxCell id="-VWM9IZ5B38HK7dgKO4f-430" value="&lt;font style=&quot;font-size: 59px;&quot;&gt;X&lt;/font&gt;" style="rounded=0;whiteSpace=wrap;html=1;glass=0;strokeColor=default;" vertex="1" parent="1">
          <mxGeometry x="660" y="1260" width="40" height="40" as="geometry" />
        </mxCell>
        <mxCell id="-VWM9IZ5B38HK7dgKO4f-431" value="" style="rounded=0;whiteSpace=wrap;html=1;fillColor=#ffff88;strokeColor=none;glass=0;textOpacity=80;opacity=80;" vertex="1" parent="1">
          <mxGeometry x="640" y="1240" width="80" height="80" as="geometry" />
        </mxCell>
        <mxCell id="-VWM9IZ5B38HK7dgKO4f-432" value="&lt;font style=&quot;font-size: 59px;&quot;&gt;X&lt;/font&gt;" style="rounded=0;whiteSpace=wrap;html=1;glass=0;strokeColor=default;" vertex="1" parent="1">
          <mxGeometry x="740" y="1260" width="40" height="40" as="geometry" />
        </mxCell>
        <mxCell id="-VWM9IZ5B38HK7dgKO4f-433" value="" style="rounded=0;whiteSpace=wrap;html=1;fillColor=#ffff88;strokeColor=none;glass=0;textOpacity=80;opacity=80;" vertex="1" parent="1">
          <mxGeometry x="720" y="1240" width="80" height="80" as="geometry" />
        </mxCell>
        <mxCell id="-VWM9IZ5B38HK7dgKO4f-434" value="" style="rounded=0;whiteSpace=wrap;html=1;fillColor=#ffff88;strokeColor=none;glass=0;textOpacity=80;opacity=80;" vertex="1" parent="1">
          <mxGeometry x="400" y="680" width="80" height="80" as="geometry" />
        </mxCell>
        <mxCell id="-VWM9IZ5B38HK7dgKO4f-435" value="" style="rounded=0;whiteSpace=wrap;html=1;fillColor=#ffff88;strokeColor=none;glass=0;textOpacity=80;opacity=80;" vertex="1" parent="1">
          <mxGeometry x="720" y="1160" width="80" height="80" as="geometry" />
        </mxCell>
        <mxCell id="-VWM9IZ5B38HK7dgKO4f-436" value="" style="rounded=0;whiteSpace=wrap;html=1;fillColor=#ffff88;strokeColor=none;glass=0;textOpacity=80;opacity=80;" vertex="1" parent="1">
          <mxGeometry x="560" y="840" width="80" height="80" as="geometry" />
        </mxCell>
        <mxCell id="-VWM9IZ5B38HK7dgKO4f-437" value="&lt;font style=&quot;font-size: 59px;&quot;&gt;V&lt;/font&gt;" style="rounded=0;whiteSpace=wrap;html=1;glass=0;strokeColor=default;" vertex="1" parent="1">
          <mxGeometry x="580" y="860" width="40" height="40" as="geometry" />
        </mxCell>
        <mxCell id="-VWM9IZ5B38HK7dgKO4f-438" value="" style="rounded=0;whiteSpace=wrap;html=1;fillColor=#ffff88;strokeColor=none;glass=0;textOpacity=80;opacity=80;" vertex="1" parent="1">
          <mxGeometry x="240" y="840" width="80" height="80" as="geometry" />
        </mxCell>
        <mxCell id="-VWM9IZ5B38HK7dgKO4f-439" value="&lt;font style=&quot;font-size: 59px;&quot;&gt;V&lt;/font&gt;" style="rounded=0;whiteSpace=wrap;html=1;glass=0;strokeColor=default;" vertex="1" parent="1">
          <mxGeometry x="260" y="860" width="40" height="40" as="geometry" />
        </mxCell>
        <mxCell id="-VWM9IZ5B38HK7dgKO4f-440" value="" style="rounded=0;whiteSpace=wrap;html=1;fillColor=#6EC21A;strokeColor=none;glass=0;textOpacity=80;opacity=50;fontColor=#ffffff;" vertex="1" parent="1">
          <mxGeometry x="240" y="840" width="400" height="80" as="geometry" />
        </mxCell>
        <mxCell id="-VWM9IZ5B38HK7dgKO4f-441" value="" style="rounded=0;whiteSpace=wrap;html=1;fillColor=#ffff88;strokeColor=none;glass=0;textOpacity=80;opacity=80;" vertex="1" parent="1">
          <mxGeometry x="560" y="1000" width="80" height="80" as="geometry" />
        </mxCell>
        <mxCell id="-VWM9IZ5B38HK7dgKO4f-442" value="&lt;font style=&quot;font-size: 59px;&quot;&gt;V&lt;/font&gt;" style="rounded=0;whiteSpace=wrap;html=1;glass=0;strokeColor=default;" vertex="1" parent="1">
          <mxGeometry x="580" y="1020" width="40" height="40" as="geometry" />
        </mxCell>
        <mxCell id="-VWM9IZ5B38HK7dgKO4f-443" value="" style="rounded=0;whiteSpace=wrap;html=1;fillColor=#ffff88;strokeColor=none;glass=0;textOpacity=80;opacity=80;" vertex="1" parent="1">
          <mxGeometry x="720" y="840" width="80" height="80" as="geometry" />
        </mxCell>
        <mxCell id="-VWM9IZ5B38HK7dgKO4f-444" value="&lt;font style=&quot;font-size: 59px;&quot;&gt;V&lt;/font&gt;" style="rounded=0;whiteSpace=wrap;html=1;glass=0;strokeColor=default;" vertex="1" parent="1">
          <mxGeometry x="740" y="860" width="40" height="40" as="geometry" />
        </mxCell>
        <mxCell id="-VWM9IZ5B38HK7dgKO4f-445" value="&lt;h1&gt;&lt;br&gt;&lt;/h1&gt;" style="rounded=0;whiteSpace=wrap;html=1;fillColor=#6EC21A;strokeColor=none;glass=0;textOpacity=80;opacity=50;fontColor=#ffffff;" vertex="1" parent="1">
          <mxGeometry x="560" y="1000" width="240" height="80" as="geometry" />
        </mxCell>
        <mxCell id="-VWM9IZ5B38HK7dgKO4f-446" value="" style="rounded=0;whiteSpace=wrap;html=1;fillColor=#6EC21A;strokeColor=none;glass=0;textOpacity=80;opacity=50;fontColor=#ffffff;" vertex="1" parent="1">
          <mxGeometry x="720" y="840" width="80" height="160" as="geometry" />
        </mxCell>
        <mxCell id="-VWM9IZ5B38HK7dgKO4f-447" value="" style="rounded=0;whiteSpace=wrap;html=1;fillColor=#0050ef;strokeColor=none;glass=0;opacity=50;fontColor=#ffffff;" vertex="1" parent="1">
          <mxGeometry x="240" y="600" width="560" height="80" as="geometry" />
        </mxCell>
        <mxCell id="-VWM9IZ5B38HK7dgKO4f-448" value="&lt;font style=&quot;font-size: 59px;&quot;&gt;X&lt;/font&gt;" style="rounded=0;whiteSpace=wrap;html=1;glass=0;strokeColor=default;" vertex="1" parent="1">
          <mxGeometry x="260" y="780" width="40" height="40" as="geometry" />
        </mxCell>
        <mxCell id="-VWM9IZ5B38HK7dgKO4f-449" value="" style="rounded=0;whiteSpace=wrap;html=1;fillColor=#ffff88;strokeColor=none;glass=0;textOpacity=80;opacity=80;" vertex="1" parent="1">
          <mxGeometry x="240" y="760" width="80" height="80" as="geometry" />
        </mxCell>
        <mxCell id="-VWM9IZ5B38HK7dgKO4f-450" value="&lt;font style=&quot;font-size: 59px;&quot;&gt;X&lt;/font&gt;" style="rounded=0;whiteSpace=wrap;html=1;glass=0;strokeColor=default;" vertex="1" parent="1">
          <mxGeometry x="420" y="620" width="40" height="40" as="geometry" />
        </mxCell>
        <mxCell id="-VWM9IZ5B38HK7dgKO4f-451" value="" style="rounded=0;whiteSpace=wrap;html=1;fillColor=#ffff88;strokeColor=none;glass=0;textOpacity=80;opacity=80;" vertex="1" parent="1">
          <mxGeometry x="400" y="600" width="80" height="80" as="geometry" />
        </mxCell>
        <mxCell id="-VWM9IZ5B38HK7dgKO4f-452" value="&lt;font style=&quot;font-size: 59px;&quot;&gt;X&lt;/font&gt;" style="rounded=0;whiteSpace=wrap;html=1;glass=0;strokeColor=default;" vertex="1" parent="1">
          <mxGeometry x="500" y="620" width="40" height="40" as="geometry" />
        </mxCell>
        <mxCell id="-VWM9IZ5B38HK7dgKO4f-453" value="" style="rounded=0;whiteSpace=wrap;html=1;fillColor=#ffff88;strokeColor=none;glass=0;textOpacity=80;opacity=80;" vertex="1" parent="1">
          <mxGeometry x="480" y="600" width="80" height="80" as="geometry" />
        </mxCell>
        <mxCell id="-VWM9IZ5B38HK7dgKO4f-454" value="&lt;font style=&quot;font-size: 59px;&quot;&gt;X&lt;/font&gt;" style="rounded=0;whiteSpace=wrap;html=1;glass=0;strokeColor=default;" vertex="1" parent="1">
          <mxGeometry x="340" y="620" width="40" height="40" as="geometry" />
        </mxCell>
        <mxCell id="-VWM9IZ5B38HK7dgKO4f-455" value="" style="rounded=0;whiteSpace=wrap;html=1;fillColor=#ffff88;strokeColor=none;glass=0;textOpacity=80;opacity=80;" vertex="1" parent="1">
          <mxGeometry x="320" y="600" width="80" height="80" as="geometry" />
        </mxCell>
        <mxCell id="-VWM9IZ5B38HK7dgKO4f-456" value="&lt;font style=&quot;font-size: 59px;&quot;&gt;X&lt;/font&gt;" style="rounded=0;whiteSpace=wrap;html=1;glass=0;strokeColor=default;" vertex="1" parent="1">
          <mxGeometry x="260" y="620" width="40" height="40" as="geometry" />
        </mxCell>
        <mxCell id="-VWM9IZ5B38HK7dgKO4f-457" value="" style="rounded=0;whiteSpace=wrap;html=1;fillColor=#ffff88;strokeColor=none;glass=0;textOpacity=80;opacity=80;" vertex="1" parent="1">
          <mxGeometry x="240" y="600" width="80" height="80" as="geometry" />
        </mxCell>
        <mxCell id="-VWM9IZ5B38HK7dgKO4f-458" value="&lt;font style=&quot;font-size: 59px;&quot;&gt;X&lt;/font&gt;" style="rounded=0;whiteSpace=wrap;html=1;glass=0;strokeColor=default;" vertex="1" parent="1">
          <mxGeometry x="580" y="620" width="40" height="40" as="geometry" />
        </mxCell>
        <mxCell id="-VWM9IZ5B38HK7dgKO4f-459" value="" style="rounded=0;whiteSpace=wrap;html=1;fillColor=#ffff88;strokeColor=none;glass=0;textOpacity=80;opacity=80;" vertex="1" parent="1">
          <mxGeometry x="560" y="600" width="80" height="80" as="geometry" />
        </mxCell>
        <mxCell id="-VWM9IZ5B38HK7dgKO4f-460" value="&lt;font style=&quot;font-size: 59px;&quot;&gt;X&lt;/font&gt;" style="rounded=0;whiteSpace=wrap;html=1;glass=0;strokeColor=default;" vertex="1" parent="1">
          <mxGeometry x="660" y="620" width="40" height="40" as="geometry" />
        </mxCell>
        <mxCell id="-VWM9IZ5B38HK7dgKO4f-461" value="" style="rounded=0;whiteSpace=wrap;html=1;fillColor=#ffff88;strokeColor=none;glass=0;textOpacity=80;opacity=80;" vertex="1" parent="1">
          <mxGeometry x="640" y="600" width="80" height="80" as="geometry" />
        </mxCell>
        <mxCell id="-VWM9IZ5B38HK7dgKO4f-462" value="&lt;font style=&quot;font-size: 59px;&quot;&gt;X&lt;/font&gt;" style="rounded=0;whiteSpace=wrap;html=1;glass=0;strokeColor=default;" vertex="1" parent="1">
          <mxGeometry x="740" y="620" width="40" height="40" as="geometry" />
        </mxCell>
        <mxCell id="-VWM9IZ5B38HK7dgKO4f-463" value="" style="rounded=0;whiteSpace=wrap;html=1;fillColor=#ffff88;strokeColor=none;glass=0;textOpacity=80;opacity=80;" vertex="1" parent="1">
          <mxGeometry x="720" y="600" width="80" height="80" as="geometry" />
        </mxCell>
        <mxCell id="-VWM9IZ5B38HK7dgKO4f-464" value="&lt;h1&gt;&lt;font face=&quot;Courier New&quot;&gt;p-well&lt;/font&gt;&lt;/h1&gt;" style="text;html=1;strokeColor=none;fillColor=none;align=center;verticalAlign=middle;whiteSpace=wrap;rounded=0;" vertex="1" parent="1">
          <mxGeometry x="120" y="970" width="110" height="30" as="geometry" />
        </mxCell>
        <mxCell id="-VWM9IZ5B38HK7dgKO4f-465" value="&lt;h1 style=&quot;color: rgb(255, 255, 255); font-family: Helvetica;&quot;&gt;&lt;font style=&quot;font-size: 24px;&quot; face=&quot;Courier New&quot;&gt;Out&lt;/font&gt;&lt;/h1&gt;" style="text;html=1;strokeColor=none;fillColor=none;align=center;verticalAlign=middle;whiteSpace=wrap;rounded=0;fontFamily=Courier New;fontSize=24;" vertex="1" parent="1">
          <mxGeometry x="710" y="960" width="100" height="60" as="geometry" />
        </mxCell>
        <mxCell id="-VWM9IZ5B38HK7dgKO4f-466" value="&lt;h1 style=&quot;font-family: Helvetica;&quot;&gt;&lt;font style=&quot;font-size: 24px;&quot; face=&quot;Courier New&quot;&gt;GND&lt;/font&gt;&lt;/h1&gt;" style="text;html=1;strokeColor=none;fillColor=none;align=center;verticalAlign=middle;whiteSpace=wrap;rounded=0;fontFamily=Courier New;fontSize=24;" vertex="1" parent="1">
          <mxGeometry x="780" y="1240" width="100" height="60" as="geometry" />
        </mxCell>
        <mxCell id="-VWM9IZ5B38HK7dgKO4f-467" value="&lt;h1 style=&quot;font-family: Helvetica;&quot;&gt;&lt;font style=&quot;font-size: 24px;&quot; face=&quot;Courier New&quot;&gt;VDD&lt;/font&gt;&lt;/h1&gt;" style="text;html=1;strokeColor=none;fillColor=none;align=center;verticalAlign=middle;whiteSpace=wrap;rounded=0;fontFamily=Courier New;fontSize=24;" vertex="1" parent="1">
          <mxGeometry x="780" y="600" width="100" height="60" as="geometry" />
        </mxCell>
        <mxCell id="-VWM9IZ5B38HK7dgKO4f-469" value="" style="rounded=0;whiteSpace=wrap;html=1;fontFamily=Courier New;fontSize=18;fontColor=#000000;strokeWidth=2;fillColor=none;strokeColor=none;" vertex="1" parent="1">
          <mxGeometry x="60" y="300" width="920" height="1200" as="geometry" />
        </mxCell>
      </root>
    </mxGraphModel>
  </diagram>
</mxfile>
